#!OML:ASF H:\Terrain\Patient Classification 1\Takeo\Monday\TakeoMonday.ASF
:FULLY-SPECIFIED
:DEGREES
251
root 10.0699 16.9811 19.5423 -2.38183 -8.33602 -3.96326
lowerback 7.61744 1.85074 6.2271
upperback 2.82212 2.91862 1.0001
thorax -1.07994 1.48045 -2.69474
lowerneck -13.897 1.35608 -1.26211
upperneck -2.56937 2.0286 -2.00513
head 1.54827 0.961331 -0.309115
rclavicle -3.53091e-014 9.93923e-016
rhumerus -9.39014 12.3596 -78.2024
rradius 70.6056
rwrist -22.0301
rhand -32.2071 24.3573
rfingers 7.12502
rthumb -5.44866 -5.55267
lclavicle -3.53091e-014 9.93923e-016
lhumerus -55.2533 18.717 70.0757
lradius 18.9054
lwrist 17.27
lhand -19.5953 24.3893
lfingers 7.12502
lthumb 6.73053 54.2623
rfemur 26.3876 5.68178 27.5272
rtibia 16.1581
rfoot -8.09869 3.44882
rtoes -27.3912
lfemur -33.3444 -0.0491322 -17.9678
ltibia 33.1456
lfoot -12.3711 13.3115
ltoes -21.2129
252
root 10.0725 16.9716 19.8301 -2.39917 -8.44706 -3.53664
lowerback 7.52261 1.94419 5.63338
upperback 2.60853 3.00033 0.832861
thorax -1.26527 1.5104 -2.54474
lowerneck -13.7458 1.32615 -1.11352
upperneck -2.42349 1.96501 -1.92853
head 1.57085 0.930112 -0.314126
rclavicle -3.88873e-015 -1.78906e-015
rhumerus -9.99288 12.3111 -78.2857
rradius 70.9285
rwrist -21.6565
rhand -31.8801 24.1411
rfingers 7.12502
rthumb -5.13295 -5.77676
lclavicle -3.88873e-015 -1.78906e-015
lhumerus -55.8824 19.1473 69.2257
lradius 18.8561
lwrist 16.9776
lhand -19.3702 24.1929
lfingers 7.12502
lthumb 6.94781 54.0589
rfemur 26.5041 5.88303 26.9265
rtibia 17.4367
rfoot -6.26311 3.72431
rtoes -29.5001
lfemur -33.417 0.197413 -18.6604
ltibia 34.6652
lfoot -10.4645 13.9281
ltoes -19.7324
253
root 10.0844 16.9485 20.126 -2.4486 -8.42761 -3.37201
lowerback 7.43722 1.92434 5.37196
upperback 2.37152 2.95838 0.768093
thorax -1.47776 1.47923 -2.46556
lowerneck -13.3117 1.32358 -0.973141
upperneck -2.44841 1.93333 -1.96347
head 1.48834 0.915296 -0.353647
rclavicle 7.86442e-015 -3.77691e-015
rhumerus -10.8206 12.5823 -78.4554
rradius 71.3319
rwrist -21.8328
rhand -31.8778 24.4777
rfingers 7.12502
rthumb -5.13078 -5.44015
lclavicle 7.86442e-015 -3.77691e-015
lhumerus -56.4731 19.8644 68.2308
lradius 18.4475
lwrist 16.5934
lhand -20.0803 23.6868
lfingers 7.12502
lthumb 6.26231 53.5742
rfemur 26.4622 5.78841 26.4491
rtibia 19.1415
rfoot -4.25673 4.00488
rtoes -31.0961
lfemur -33.4939 0.041431 -18.947
ltibia 36.3003
lfoot -9.06945 14.3831
ltoes -18.0626
254
root 10.1026 16.924 20.4341 -2.70609 -8.25905 -3.15273
lowerback 7.21122 1.83823 5.27893
upperback 2.41389 2.81772 0.561989
thorax -1.31396 1.41519 -2.60504
lowerneck -13.3382 1.34565 -0.853418
upperneck -2.33929 1.94206 -1.71028
head 1.52738 0.924613 -0.292957
rclavicle -4.30307e-014 -9.54166e-015
rhumerus -11.4705 12.529 -78.8587
rradius 71.6776
rwrist -21.755
rhand -31.8313 24.4745
rfingers 7.12502
rthumb -5.08584 -5.44444
lclavicle -4.30307e-014 -9.54166e-015
lhumerus -56.4829 20.4342 67.3609
lradius 17.8107
lwrist 16.0324
lhand -20.6064 23.4434
lfingers 7.12502
lthumb 5.75441 53.3452
rfemur 26.2514 5.49486 25.798
rtibia 21.5133
rfoot -1.93256 4.29533
rtoes -30.907
lfemur -33.3309 -0.158628 -19.3414
ltibia 38.1029
lfoot -8.34153 13.8642
ltoes -12.6653
255
root 10.1137 16.911 20.7182 -2.8796 -8.10867 -3.01555
lowerback 6.9531 1.81315 5.34365
upperback 2.62955 2.76021 0.273206
thorax -0.934146 1.40266 -2.91873
lowerneck -13.9849 1.3268 -0.741116
upperneck -2.06133 1.90246 -1.26932
head 1.72998 0.911783 -0.168951
rclavicle 3.34774e-014 1.75303e-014
rhumerus -11.9165 11.9705 -79.4031
rradius 71.9335
rwrist -21.1043
rhand -31.5907 23.8973
rfingers 7.12502
rthumb -4.85357 -6.02709
lclavicle 3.34774e-014 1.75303e-014
lhumerus -55.7719 20.8531 66.7382
lradius 17.0984
lwrist 15.4376
lhand -20.4715 23.4692
lfingers 7.12502
lthumb 5.88464 53.3674
rfemur 25.4157 5.394 25.3252
rtibia 24.4361
rfoot 1.02564 4.37625
rtoes -30.3453
lfemur -33.3298 0.0215843 -19.6937
ltibia 39.908
lfoot -7.58143 12.5401
ltoes -6.26885
256
root 10.1121 16.9066 20.9723 -2.74781 -7.96248 -3.05851
lowerback 6.69254 1.85226 5.40097
upperback 2.7011 2.79567 0.1468
thorax -0.702758 1.4294 -3.07066
lowerneck -14.3542 1.24006 -0.81095
upperneck -2.01999 1.79643 -0.993398
head 1.80551 0.866261 -0.0723157
rclavicle 4.64783e-014 -2.43511e-015
rhumerus -12.6252 11.6604 -79.7749
rradius 72.2768
rwrist -21.1584
rhand -31.632 23.9226
rfingers 7.12502
rthumb -4.89339 -6.00092
lclavicle 4.64783e-014 -2.43511e-015
lhumerus -55.062 21.6551 65.9906
lradius 16.3612
lwrist 14.2864
lhand -20.1455 23.2364
lfingers 7.12502
lthumb 6.19936 53.1257
rfemur 23.7666 5.68437 25.36
rtibia 27.9804
rfoot 4.11931 4.07934
rtoes -31.6084
lfemur -33.686 0.510324 -19.8958
ltibia 41.5734
lfoot -7.04271 11.2245
ltoes -3.03457
257
root 10.1115 16.8977 21.2252 -2.84557 -7.89849 -2.35147
lowerback 6.85043 1.88751 4.55688
upperback 2.53586 2.80056 -0.0519417
thorax -0.99425 1.41787 -2.81547
lowerneck -13.911 1.21649 -0.695049
upperneck -2.25159 1.75068 -1.46021
head 1.65562 0.83226 -0.247282
rclavicle -3.15198e-014 7.45443e-016
rhumerus -13.8326 11.9811 -80.1844
rradius 72.5271
rwrist -22.097
rhand -32.0378 24.6773
rfingers 7.12502
rthumb -5.28521 -5.23684
lclavicle -3.15198e-014 7.45443e-016
lhumerus -55.1157 22.6867 64.8915
lradius 15.9287
lwrist 12.8387
lhand -19.9296 23.2253
lfingers 7.12502
lthumb 6.40776 53.1084
rfemur 22.0132 6.13462 24.6053
rtibia 32.0412
rfoot 7.14697 4.01852
rtoes -32.6939
lfemur -33.5745 1.00111 -20.9424
ltibia 43.0413
lfoot -7.58264 10.7013
ltoes -1.21815
258
root 10.1113 16.8752 21.4622 -3.06507 -7.85805 -1.61812
lowerback 7.44598 1.86584 3.66454
upperback 2.23672 2.74046 -0.26176
thorax -1.67237 1.36645 -2.56138
lowerneck -13.2827 1.22456 -1.14613
upperneck -2.67221 1.80232 -0.852444
head 1.39458 0.88322 0.0185955
rclavicle -2.41213e-014 7.05686e-015
rhumerus -15.0196 12.5103 -80.6859
rradius 72.4153
rwrist -22.7669
rhand -32.6345 25.1363
rfingers 7.12502
rthumb -5.86134 -4.76266
lclavicle -2.41213e-014 7.05686e-015
lhumerus -55.4037 23.6311 63.6808
lradius 15.6455
lwrist 11.5618
lhand -19.8343 23.4721
lfingers 7.12502
lthumb 6.49978 53.3524
rfemur 20.2208 6.52627 23.8436
rtibia 36.2414
rfoot 10.183 3.80359
rtoes -34.1444
lfemur -33.1194 1.40813 -21.9747
ltibia 44.2403
lfoot -8.49257 10.6034
ltoes -1.02448
259
root 10.1035 16.8522 21.6745 -3.20873 -7.85824 -1.55532
lowerback 8.06907 1.83059 3.45339
upperback 2.12954 2.70038 -0.364025
thorax -2.13663 1.33539 -2.57423
lowerneck -13.322 1.04152 -0.939824
upperneck -2.72299 1.53362 -1.09303
head 1.38913 0.741617 -0.106048
rclavicle -6.42199e-014 1.78906e-015
rhumerus -15.602 12.5189 -81.1271
rradius 71.9154
rwrist -21.9987
rhand -32.7204 24.4447
rfingers 7.12502
rthumb -5.94428 -5.45194
lclavicle -6.42199e-014 1.78906e-015
lhumerus -55.0366 24.513 62.8026
lradius 15.244
lwrist 10.5332
lhand -20.2992 23.3087
lfingers 7.12502
lthumb 6.051 53.2022
rfemur 18.3577 6.7324 23.9381
rtibia 40.2604
rfoot 12.9803 3.88354
rtoes -39.0709
lfemur -32.7399 1.84938 -22.1944
ltibia 45.1718
lfoot -9.13427 10.1601
ltoes -1.30483
